<?xml version="1.0" encoding="utf-8"?>
<svg version="1.1" id="Layer_1" xmlns="http://www.w3.org/2000/svg" xmlns:xlink="http://www.w3.org/1999/xlink" x="0px" y="0px"
	 viewBox="0 0 512 512" style="enable-background:new 0 0 512 512;" xml:space="preserve">
<style type="text/css">
	.st0{fill:#1E1E1E;}
</style>
<path class="st0" d="M765.2,703.7c-339.3,0-678.6,0-1017.9,0.1c-4,0-4.9-0.8-4.9-4.8c0.1-296.7,0.1-593.4,0.1-890.1
	c338.9,0,677.7,0,1016.6-0.1c5,0,6.1,1.1,6.1,6.1C765.2,111.1,765.2,407.4,765.2,703.7z M304.3-169.8c-0.8,0-1.7,0-2.5,0
	c-9.3-0.2-16.8,4.9-24.8,8.4c-12.8,5.5-24.9,11.9-33.5,23.5c-5.6,7.6-12.8,14.4-14.3,24.2c-3.9,26-8.7,51.8-12.6,77.8
	c-4.2,28.4-9.2,56.8-13.1,85.2c-2,14.8-4.9,29.5-6.9,44.3c-1.2,8.6-1.7,17.7-7.4,25.1c-6.3,8.3-11,17.9-20.4,23.6
	c-12.8,7.7-26,14.8-38.1,23.6c-20.8,15.2-43.1,28.2-64.1,43.2c-20.7,14.8-42.1,28.6-63.1,43c-24.4,16.8-48.5,33.8-73,50.5
	c-16.2,11-32.6,21.8-48.4,33.4c-8.8,6.5-17.4,13.3-27,18.8c-10.5,6.1-16,15-15.1,27.5c0.1,1.8,0.1,3.7-0.3,5.5
	c-1.5,7.3,1.4,13.3,6.5,17.9c15.3,14.1,30.3,28.4,47.1,40.8c36.2,26.6,70.4,55.8,106.1,83.1c37.8,28.9,75.7,57.6,114.9,84.7
	c31.8,21.9,63.7,43.6,94.5,66.8c15,11.3,44.5,4.2,51.8-17.5c10.6-31.7,21.3-63.3,32.6-94.8c9.3-26,17.5-52.3,26.9-78.3
	c9.1-25.2,16.9-50.8,25.4-76.2c12-36,24.1-71.9,34.7-108.3c4.1-14,13-24.9,22.5-35.5c1.6-1.7,3.7-2.8,5.8-3.8
	c18.8-8.5,37.6-17,56.4-25.5c23.2-10.5,46.4-20.9,69.6-31.4c20.4-9.3,40.9-18.6,61.2-28c6.5-3,14.4-3.9,19.1-9.4
	c12.4-14.1,25.3-28,28-47.9c0.8-5.9,2.1-11.8,3.6-17.6c1.3-5.2,1-10.2,0.1-15.3c-3.1-17.9-12.7-31.5-27.1-42.1
	C561.8,7.4,504.7-35.7,447.6-78.8c-34.7-26.1-68.5-53.4-103.9-78.6C331.9-165.7,318.6-169.5,304.3-169.8z"/>
</svg>
