<svg version="1.1" id="Layer_1" xmlns="http://www.w3.org/2000/svg" xmlns:xlink="http://www.w3.org/1999/xlink" x="0px" y="0px"
	 viewBox="0 0 512 512" style="enable-background:new 0 0 512 512;" xml:space="preserve">
<style type="text/css">
	.st0{fill:#ED5B33;}
</style>
<path class="st0" d="M486.3,263.7c0.7,99.1-67.1,181.6-149.2,212.9C222.3,520.4,92.3,466,43.2,353.1c-59.5-136.8,17-291,161.1-323.4
	c90.5-20.4,167.4,7.6,227.9,77.5C469.3,149.9,486.2,201,486.3,263.7z M260.2,460.4c5.6,0,15.9-0.5,26.1-2.1
	C390.7,441.7,471.7,340,453.1,224.5c-7.2-44.6-27.2-82.7-60-113.7c-50.8-47.9-111.1-66.5-179.5-51.7
	C105.2,82.6,36.6,188.7,57.8,297.7C76,391.4,160.1,460.6,260.2,460.4z"/>
<path class="st0" d="M319.8,274.7c-33.5,0-67-0.1-100.5,0.1c-4.7,0-6-1.4-5.8-5.9c0.3-6.6,0.2-13.3,0-20c-0.1-3.4,0.9-4.8,4.5-4.7
	c5.3,0.2,10.7-0.5,16-0.2c4.8,0.3,5.9-1.7,5.8-6.1c-0.2-12,0.1-24-0.1-36c-0.1-4,0.9-5.7,5.2-5.5c6.5,0.3,13,0.3,19.5,0
	c4.4-0.2,6.2,1.1,6,5.8c-0.3,11.8,0.2,23.7-0.1,35.5c-0.1,4.7,1.1,6.3,6,6.3c47-0.1,94,0,140.9,0.1c10,0,8.8-0.9,8.9,8.8
	c0,5.5-0.3,11,0,16.5c0.2,4.1-1.2,5.4-5.3,5.4c-26.7-0.2-53.3-0.2-80-0.2C333.7,274.7,326.7,274.7,319.8,274.7
	C319.8,274.7,319.8,274.7,319.8,274.7z"/>
<path class="st0" d="M133.8,274.7c-15,0-30-0.2-45,0.1c-4.3,0.1-5.4-1.3-5.3-5.4c0.3-7,0.2-14,0-21c-0.1-3,0.9-4.1,4-4.1
	c31,0,62,0,92.9-0.2c3.6,0,4.5,1.5,4.5,4.8c-0.2,7.2-0.2,14.3,0,21.5c0.1,3.6-1.4,4.4-4.7,4.4C164.8,274.7,149.3,274.8,133.8,274.7
	C133.8,274.8,133.8,274.8,133.8,274.7z"/>
<path class="st0" d="M239.7,382.6c0-14,0.1-28-0.1-41.9c0-3.7,0.7-5.4,4.9-5.3c7.1,0.3,14.3,0.1,21.5-0.1c3.3-0.1,4.4,1.1,4.4,4.3
	c-0.1,28.8-0.1,57.6-0.1,86.4c0,3-1,4.1-4,4c-7.5-0.2-15-0.2-22.5,0c-3.3,0.1-4.2-1.2-4.2-4.4C239.8,411.2,239.7,396.9,239.7,382.6
	C239.7,382.6,239.7,382.6,239.7,382.6z"/>
<path class="st0" d="M270.1,125.6c0,12.5-0.1,25,0.1,37.5c0.1,4-1.4,5.1-5.2,5c-7.1-0.3-14.3-0.2-21.5-0.1c-2.9,0-4-1-4-4.1
	c0.1-25.1,0.1-50.3,0-75.4c0-3.2,1-4.5,4.2-4.4c7.3,0.1,14.7,0.1,22-0.1c3.6-0.1,4.5,1.4,4.5,4.8c-0.1,12.3-0.1,24.6-0.1,37
	C270.2,125.6,270.2,125.6,270.1,125.6z"/>
<path class="st0" d="M254.8,322.1c-3.8,0-7.7,0-11.5,0c-2.3,0-3.8-0.6-3.7-3.3c0.2-4.2,0.1-8.3,0-12.5c-0.1-2.7,1.2-3.5,3.6-3.5
	c7.8,0.1,15.7,0,23.5,0c2.5,0,3.7,1.1,3.5,3.6c0,0.2,0,0.3,0,0.5C270.9,322,270.9,322,254.8,322.1z"/>
</svg>
