<?xml version="1.0" encoding="UTF-8"?>
<svg id="Layer_2" data-name="Layer 2" xmlns="http://www.w3.org/2000/svg" viewBox="0 0 556.17 566.14">
  <defs>
    <style>
      .cls-1 {
        fill: #f6f6f6;
      }

      .cls-1, .cls-2, .cls-3 {
        stroke-width: 0px;
      }

      .cls-2 {
        fill: #2d2c2c;
      }

      .cls-3 {
        fill: #fcfcfc;
      }
    </style>
  </defs>
  <g id="Layer_1-2" data-name="Layer 1">
    <g>
      <path class="cls-3" d="m272.82,565.94c-3.79.23-7.17.45-11.73-.48-16.9-3.45-2.2-.09-2.32-.1,4.26.46,3.2-2.65,3.2-4.9.04-44.11.04-88.22.08-132.33,0-2.04-.14-3.87-1.44-5.62-5.36-7.2-10.69-14.41-15.85-21.75-1.98-2.81-4.49-4-7.77-4.6-13.75-2.52-25.9-8.45-35.74-18.42-10.38-10.52-16.32-23.05-14.55-38.23,1.08-9.27,7.29-13.8,16.58-12.75.99.11,2,.02,3.68.02-1.81-1.55-2.99-2.46-4.05-3.49-11.2-10.8-18.51-23.43-18.13-39.51.25-10.47,5.86-16.14,16.26-16.89,2.61-.19,5.21-.61,7.81-.92,0,.22,0,.45,0,.67.2-.07.4-.14.6-.2-.23-.13-.46-.26-.68-.4.04-1.42-1.26-1.88-2.05-2.6-8.46-7.71-14.11-17.18-17.24-28.11-2.02-7.08-3.25-14.35-.64-21.56,1.06-2.92,2.45-5.77,6.57-5.68,30.33.61,57.88,19.37,62.84,48.05.21,1.24-.24,3.62,1.8,3.59,2.52-.03,1.71-2.44,1.73-3.89.13-10.15,0-20.31.27-30.46.11-4.07-1.12-7.08-3.76-10.24-25.26-30.27-17.27-74.35,17.04-93.74,3.33-1.88,4.21-3.86,4.2-7.37-.08-37.95-.02-75.91,0-113.86,25.93-.48,51.11,4.2,75.91,11.3,26.58,7.61,51.21,19.57,74.21,34.73,11.19,7.37,21.64,15.82,31.72,24.78,15.11,13.43,28.44,28.34,40.3,44.59,12.07,16.52,22.43,34.06,30.76,52.83,10.22,23.04,17.09,47.02,20.97,71.83,1.35,8.62,2.4,17.35,2.47,26.2.07,9.25.59,18.43.09,27.75-.86,15.94-2.98,31.6-6.26,47.18-4.96,23.55-13.06,45.99-23.93,67.4-10.25,20.19-22.84,38.85-37.42,56.23-17.52,20.88-37.66,38.72-60.28,53.83-32.48,21.69-68.04,35.84-106.37,42.89-12.5,2.3-25.13,4.3-37.94,4.27.04-.66.11-1.33.11-1.99.02-44.65.09-89.31-.04-133.96-.02-5.3,1.44-9.75,4.57-13.86,3.63-4.77,7.33-9.49,10.7-14.44,2.64-3.86,5.74-5.54,10.64-5.82,31.03-1.76,54.19-25.29,55.22-55.62.2-5.92.2-5.97-5.99-5.44-3.64.31-7.3.62-10.89,1.25-25.95,4.57-43.75,22.18-49.53,47.68-1.87,8.26-9.38,13.39-14.56,21.45,0-7.45.04-13.28,0-19.11q-.2-26.49,16.02-47.61c2.43-3.19,4.94-4.45,9.03-4.66,31.65-1.61,54.05-23.19,55.92-53.49q.5-8.06-7.72-7.43c-.66.05-1.33.06-2,.11-26.61,2.06-48.77,19.2-55.06,44.07-2.62,10.36-10.48,16.42-15.76,24.71-.51-8.09.23-16.08-.66-23.89-1.65-14.47,3.21-26.13,12.29-37.06,4.88-5.88,9.06-11.23,17.66-9.96,1.72.25,3.59-.54,5.39-.85,27.32-4.74,47.42-29.81,46.22-57.43-.12-2.83-1.1-3.34-3.63-2.98-4.27.62-8.65.65-12.87,1.5-24.54,4.92-42,18.46-48.55,43.13-2.78,10.47-10.54,16.72-15.86,25.08-.45-20.14-.44-40.08-.47-60.03,0-1.99.93-3.4,2.13-4.85,20.51-24.77,20.77-54.83.75-80.48q-6.13-7.86-12.83-.62c-22.86,24.59-25.51,58.67-3.04,83.39,1.69,1.86,1.75,3.77,1.75,5.95-.05,14.83-.06,29.66-.08,44.49,0,4.06,0,8.13,0,13.67-4.36-6.15-7.78-10.96-11.46-16.15-1.09,3.64-2.74,6.41-6.53,7.6,4.11,6.04,8.02,11.79,11.95,17.53,4.25,6.21,6.53,12.88,6.2,20.59-.41,9.48-.12,18.99-.21,28.49,0,.97.82,2.36-1.13,3.05-3.76-5.58-7.58-11.19-11.31-16.87-.62-.94-1.01-2.14-1.15-3.26-3.76-29.5-33.53-48.85-58.57-48.87-7.1,0-7.78.65-7.85,8.01-.25,25.71,18.41,46.72,45.61,51.95,5.56,1.07,12.11-1.35,16.56,2.85,4.16,3.93,7.05,9.22,10.45,13.95,1.55,2.16,3.01,4.38,4.49,6.59,1.4,2.11,2.62,4.49,2.65,6.92.18,13.55.08,27.1.08,41.93-4.13-5.8-7.54-10.57-10.97-15.39-2.02,1.61-1.16,4.71-3.55,5.54-3.79,1.31-2.18,3.16-.73,5.13,3.45,4.69,6.68,9.56,10.38,14.05,3.89,4.74,5.34,9.81,5.31,16.01-.18,45.15-.03,90.3.02,135.45Zm-35.95-223.84c12.69,10.62,20.71,23.52,21.92,40.09.08,1.11.39,2.1,1.56,2.18,1.43.09,1.32-1.15,1.37-2.12.58-11.98-.07-23.5-8.37-33.41-4.35-5.2-8.65-9.15-16.48-6.73Z"/>
      <path class="cls-2" d="m208.85,265.95c-2.6.31-5.2.73-7.81.92-10.41.74-16.02,6.42-16.26,16.89-.38,16.08,6.94,28.71,18.13,39.51,1.06,1.03,2.24,1.93,4.05,3.49-1.68,0-2.69.1-3.68-.02-9.29-1.05-15.5,3.48-16.58,12.75-1.77,15.18,4.17,27.71,14.55,38.23,9.84,9.97,21.99,15.91,35.74,18.42,3.29.6,5.8,1.78,7.77,4.6,5.16,7.34,10.49,14.56,15.85,21.75,1.3,1.75,1.44,3.59,1.44,5.62-.04,44.11-.05,88.22-.08,132.33,0,2.25,1.06,5.36-3.2,4.9-31.94-3.34-62.83-10.64-92.09-24.22-20.45-9.5-39.5-21.24-57.37-34.96-1.74-1.34-2.6-2.68-2.57-4.96.12-9.16.15-18.33-.01-27.49-.05-2.57,1.13-3.72,3.02-5.11,14.22-10.44,28.33-21.02,42.44-31.61,1.19-.89,3.7-1.68,2.25-3.66-1.64-2.24-3.23.1-4.52,1.05-14.16,10.44-28.26,20.95-43.1,31.97,0-10.42.57-20.19-.17-29.85-.65-8.43,1.83-14.1,8.81-19.2,10.74-7.84,20.61-16.86,30.81-25.43,1.02-.86,3.23-1.63,1.9-3.38-1.48-1.96-2.96-.14-4.16.86-10.53,8.69-21.02,17.43-31.54,26.13-1.12.92-1.96,2.27-4.32,2.66,2.07-9.12,4.06-17.93,6.06-26.74,1.98-8.74,3.91-17.49,5.98-26.21.37-1.58.9-3.16-1.09-3.64-1.82-.44-1.96,1.38-2.24,2.58-4.18,18.08-8.31,36.16-12.64,55.05-6.63-12.77-13.01-25.08-19.4-37.39-.38-.74-.67-1.53-1.1-2.23-.72-1.17-1.05-3.38-3.05-2.31-2.06,1.1-.3,2.68.27,3.83,6.03,12.2,12.14,24.36,18.23,36.53-.27.41-.54.82-.81,1.23-10.39-6.13-20.77-12.27-31.18-18.36-1.24-.72-2.76-2.83-4.04-.29-1.01,2,1.13,2.35,2.33,3.03,11.92,6.81,23.18,14.76,35.55,20.77,2.6,1.27,2.45,3.19,2.43,5.34-.11,12.12-.24,24.23-.36,36.35l-.8.96c-10.19-5.92-20.27-12.02-29.98-18.71-.68-.47-1.45-.8-2.13-1.27-1.16-.81-2.63-1.59-3.54-.28-1.27,1.82.76,2.65,1.86,3.35,10.38,6.58,20.74,13.2,31.29,19.49,2.5,1.49,3.54,3,3.51,5.8-.1,8.41-.04,16.82-.04,26.09-6.78-5.15-12.27-10.37-17.65-15.68C40.59,441,12.03,387.73,3.26,325.04c-13.47-96.17,14.87-178.89,84.17-247.02C129.15,37,179.73,12.9,237.29,3.38c13.94-2.31,28.03-3.88,42.25-3.23-.02,37.95-.08,75.91,0,113.86,0,3.51-.87,5.49-4.2,7.37-34.31,19.4-42.31,63.47-17.04,93.74,2.64,3.16,3.87,6.17,3.76,10.24-.27,10.15-.14,20.31-.27,30.46-.02,1.46.79,3.86-1.73,3.89-2.04.03-1.59-2.35-1.8-3.59-4.96-28.68-32.5-47.44-62.84-48.05-4.12-.08-5.51,2.76-6.57,5.68-2.62,7.21-1.39,14.48.64,21.56,3.12,10.93,8.77,20.39,17.24,28.11.79.72,2.09,1.18,2.05,2.6l.09-.07Zm-21.27,219.22c-7.83-4.31-15.65-8.62-23.49-12.9-1.23-.67-2.66-2.07-3.79-.03-1.28,2.31,1.14,2.27,2.21,2.88,9.79,5.61,19.62,11.14,29.41,16.74,1.18.68,2.86.83,2.84,2.94-.09,8.05-.04,16.11-.04,24.81-11.61-5.98-22.46-11.6-33.36-17.14-1.41-.72-3.3-3.08-4.53-.57-1.16,2.36,1.8,2.69,3.23,3.45,10.4,5.52,20.81,11.04,31.33,16.34,2.58,1.3,3.59,2.76,3.42,5.67-.28,4.65-.12,9.32-.09,13.98,0,1.26-.4,3.09,1.46,3.18,2.37.12,1.66-2.01,1.69-3.3.1-4.66.3-9.34-.02-13.98-.22-3.18,1.1-4.72,3.71-6.14,8.46-4.61,16.81-9.42,25.15-14.24,1.37-.79,4.25-1.18,2.58-3.72-1.39-2.12-2.89.06-4.17.76-8.95,4.95-17.86,9.96-27.19,15.17,0-8.16.12-15.76-.06-23.36-.06-2.62,1.66-3.37,3.31-4.4,8.62-5.34,17.25-10.64,25.85-16,1.42-.89,4.1-1.54,2.54-3.84-1.33-1.95-2.95.16-4.22.94-8.62,5.24-17.2,10.55-26.56,16.32,2.3-11.78,4.44-22.65,6.51-33.53.28-1.46,1.62-3.61-.79-4.2-2.62-.65-2.16,2.08-2.44,3.4-2.33,10.96-4.49,21.96-6.72,33.07-1.89-.89-2.53-2.71-3.54-4.14-5.45-7.75-10.76-15.59-16.2-23.35-.72-1.03-1.27-3.26-3.11-2.05-1.89,1.23-.15,2.68.6,3.79,5.08,7.58,10.24,15.11,15.37,22.66-.3.27-.6.53-.9.8Z"/>
      <path class="cls-2" d="m272.82,565.94c-.05-45.15-.2-90.3-.02-135.45.02-6.2-1.42-11.27-5.31-16.01-3.69-4.49-6.92-9.36-10.38-14.05-1.45-1.97-3.06-3.83.73-5.13,2.4-.83,1.53-3.93,3.55-5.54,3.43,4.82,6.84,9.6,10.97,15.39,0-14.83.09-28.38-.08-41.93-.03-2.43-1.25-4.81-2.65-6.92-1.47-2.21-2.93-4.44-4.49-6.59-3.4-4.73-6.29-10.02-10.45-13.95-4.45-4.2-11-1.78-16.56-2.85-27.2-5.23-45.86-26.24-45.61-51.95.07-7.36.75-8.01,7.85-8.01,25.04.01,54.81,19.37,58.57,48.87.14,1.12.54,2.32,1.15,3.26,3.72,5.67,7.55,11.28,11.31,16.87,1.95-.69,1.12-2.08,1.13-3.05.09-9.5-.2-19.01.21-28.49.33-7.72-1.95-14.38-6.2-20.59-3.92-5.74-7.83-11.49-11.95-17.53,3.79-1.19,5.44-3.97,6.53-7.6,3.68,5.18,7.1,10,11.46,16.15,0-5.55,0-9.61,0-13.67.02-14.83.04-29.66.08-44.49,0-2.18-.06-4.09-1.75-5.95-22.47-24.72-19.82-58.8,3.04-83.39q6.72-7.22,12.83.62c20.02,25.65,19.76,55.71-.75,80.48-1.21,1.46-2.14,2.86-2.13,4.85.03,19.94.02,39.88.47,60.03,5.32-8.36,13.08-14.61,15.86-25.08,6.55-24.67,24.01-38.21,48.55-43.13,4.22-.85,8.6-.87,12.87-1.5,2.53-.37,3.5.14,3.63,2.98,1.21,27.62-18.9,52.69-46.22,57.43-1.8.31-3.68,1.1-5.39.85-8.6-1.27-12.78,4.09-17.66,9.96-9.08,10.94-13.94,22.6-12.29,37.06.89,7.81.16,15.81.66,23.89,5.27-8.29,13.14-14.35,15.76-24.71,6.29-24.86,28.45-42.01,55.06-44.07.66-.05,1.33-.06,2-.11q8.22-.62,7.72,7.43c-1.87,30.3-24.26,51.89-55.92,53.49-4.08.21-6.59,1.47-9.03,4.66q-16.17,21.16-16.02,47.61c.04,5.83,0,11.66,0,19.11,5.18-8.06,12.68-13.19,14.56-21.45,5.78-25.49,23.59-43.11,49.53-47.68,3.59-.63,7.25-.94,10.89-1.25,6.19-.53,6.19-.48,5.99,5.44-1.03,30.33-24.19,53.86-55.22,55.62-4.89.28-8,1.96-10.64,5.82-3.37,4.95-7.08,9.67-10.7,14.44-3.13,4.11-4.59,8.56-4.57,13.86.13,44.65.06,89.3.04,133.96,0,.66-.07,1.33-.11,1.99-3.64,0-7.28,0-10.92-.01Z"/>
      <path class="cls-2" d="m99.17,417.6c.52.42.76.98.32,1.52-.1.12-.74-.19-1.14-.3.27-.41.54-.82.81-1.23Z"/>
      <path class="cls-2" d="m103.09,465.67c.11.35.23.69.34,1.04-.38-.03-.76-.05-1.14-.08.27-.32.53-.64.8-.96Z"/>
      <path class="cls-2" d="m236.87,342.09c7.83-2.42,12.13,1.54,16.48,6.73,8.3,9.91,8.96,21.44,8.37,33.41-.05.97.06,2.21-1.37,2.12-1.17-.07-1.48-1.07-1.56-2.18-1.2-16.57-9.23-29.47-21.92-40.09Z"/>
      <path class="cls-2" d="m208.76,266.02c.23.13.46.26.68.4-.2.07-.4.14-.6.2,0-.22,0-.45,0-.67,0,0-.09.07-.09.07Z"/>
      <path class="cls-1" d="m188.49,484.38c-5.13-7.55-10.29-15.08-15.37-22.66-.74-1.11-2.49-2.55-.6-3.79,1.84-1.2,2.39,1.03,3.11,2.05,5.44,7.75,10.75,15.6,16.2,23.35,1,1.43,1.65,3.25,3.54,4.14,2.23-11.11,4.39-22.11,6.72-33.07.28-1.32-.18-4.05,2.44-3.4,2.4.59,1.07,2.74.79,4.2-2.07,10.88-4.22,21.75-6.51,33.53,9.36-5.77,17.94-11.08,26.56-16.32,1.27-.77,2.89-2.89,4.22-.94,1.57,2.3-1.11,2.96-2.54,3.84-8.6,5.36-17.24,10.66-25.85,16-1.66,1.03-3.38,1.78-3.31,4.4.18,7.6.06,15.2.06,23.36,9.33-5.22,18.24-10.23,27.19-15.17,1.28-.71,2.78-2.88,4.17-.76,1.67,2.54-1.2,2.93-2.58,3.72-8.34,4.82-16.69,9.62-25.15,14.24-2.6,1.42-3.93,2.96-3.71,6.14.32,4.64.12,9.32.02,13.98-.03,1.28.68,3.41-1.69,3.3-1.86-.09-1.45-1.92-1.46-3.18-.03-4.66-.19-9.34.09-13.98.17-2.9-.84-4.37-3.42-5.67-10.52-5.3-20.93-10.82-31.33-16.34-1.44-.76-4.39-1.09-3.23-3.45,1.23-2.51,3.11-.15,4.53.57,10.89,5.54,21.74,11.16,33.36,17.14,0-8.7-.05-16.75.04-24.81.02-2.11-1.66-2.27-2.84-2.94-9.79-5.6-19.63-11.13-29.41-16.74-1.07-.62-3.49-.57-2.21-2.88,1.12-2.04,2.56-.64,3.79.03,7.84,4.28,15.66,8.6,23.49,12.9.44.73,1,1.05,1.82.59l-.92-1.38Z"/>
      <path class="cls-2" d="m188.49,484.38l.92,1.38c-.82.46-1.39.15-1.82-.59.3-.27.6-.53.9-.8Z"/>
    </g>
  </g>
</svg>
